<mxfile host="app.diagrams.net" agent="Mozilla/5.0 (Windows NT 10.0; Win64; x64) AppleWebKit/537.36 (KHTML, like Gecko) Chrome/128.0.0.0 Whale/3.28.266.14 Safari/537.36" version="24.8.6">
  <diagram name="페이지-1" id="PYfOYEmM3l3vUTJY-h2I">
    <mxGraphModel dx="1393" dy="1170" grid="0" gridSize="10" guides="1" tooltips="1" connect="1" arrows="1" fold="1" page="1" pageScale="1" pageWidth="2339" pageHeight="3300" math="0" shadow="0">
      <root>
        <mxCell id="0" />
        <mxCell id="1" parent="0" />
        <mxCell id="HmAks61mSc7AbNntd1kT-1" value="여행 계획 공유 사이트" style="shape=umlFrame;whiteSpace=wrap;html=1;pointerEvents=0;width=193;height=42;" vertex="1" parent="1">
          <mxGeometry x="230" y="160" width="1193" height="723" as="geometry" />
        </mxCell>
        <mxCell id="HmAks61mSc7AbNntd1kT-2" value="회원" style="shape=umlActor;verticalLabelPosition=bottom;verticalAlign=top;html=1;" vertex="1" parent="1">
          <mxGeometry x="138" y="277" width="42" height="75" as="geometry" />
        </mxCell>
        <mxCell id="HmAks61mSc7AbNntd1kT-3" value="비회원" style="shape=umlActor;verticalLabelPosition=bottom;verticalAlign=top;html=1;" vertex="1" parent="1">
          <mxGeometry x="132" y="724" width="43" height="72" as="geometry" />
        </mxCell>
        <mxCell id="HmAks61mSc7AbNntd1kT-7" value="회원가입" style="ellipse;whiteSpace=wrap;html=1;align=center;" vertex="1" parent="1">
          <mxGeometry x="359" y="716" width="118" height="65" as="geometry" />
        </mxCell>
        <mxCell id="HmAks61mSc7AbNntd1kT-10" value="계획조회" style="ellipse;whiteSpace=wrap;html=1;align=center;" vertex="1" parent="1">
          <mxGeometry x="340" y="386" width="50" height="50" as="geometry" />
        </mxCell>
        <mxCell id="HmAks61mSc7AbNntd1kT-17" value="" style="edgeStyle=orthogonalEdgeStyle;rounded=0;orthogonalLoop=1;jettySize=auto;html=1;endArrow=none;endFill=0;" edge="1" parent="1" source="HmAks61mSc7AbNntd1kT-12" target="HmAks61mSc7AbNntd1kT-16">
          <mxGeometry relative="1" as="geometry" />
        </mxCell>
        <mxCell id="HmAks61mSc7AbNntd1kT-18" style="edgeStyle=orthogonalEdgeStyle;rounded=0;orthogonalLoop=1;jettySize=auto;html=1;entryX=0.5;entryY=0;entryDx=0;entryDy=0;endArrow=none;endFill=0;exitX=0.5;exitY=1;exitDx=0;exitDy=0;" edge="1" parent="1" source="HmAks61mSc7AbNntd1kT-12" target="HmAks61mSc7AbNntd1kT-15">
          <mxGeometry relative="1" as="geometry" />
        </mxCell>
        <mxCell id="HmAks61mSc7AbNntd1kT-19" style="edgeStyle=orthogonalEdgeStyle;rounded=0;orthogonalLoop=1;jettySize=auto;html=1;entryX=0.5;entryY=0;entryDx=0;entryDy=0;endArrow=none;endFill=0;" edge="1" parent="1" source="HmAks61mSc7AbNntd1kT-12" target="HmAks61mSc7AbNntd1kT-10">
          <mxGeometry relative="1" as="geometry" />
        </mxCell>
        <mxCell id="HmAks61mSc7AbNntd1kT-20" style="edgeStyle=orthogonalEdgeStyle;rounded=0;orthogonalLoop=1;jettySize=auto;html=1;entryX=0.5;entryY=0;entryDx=0;entryDy=0;endArrow=none;endFill=0;exitX=0.5;exitY=1;exitDx=0;exitDy=0;" edge="1" parent="1" source="HmAks61mSc7AbNntd1kT-12" target="HmAks61mSc7AbNntd1kT-14">
          <mxGeometry relative="1" as="geometry" />
        </mxCell>
        <mxCell id="HmAks61mSc7AbNntd1kT-12" value="계획관리" style="ellipse;whiteSpace=wrap;html=1;align=center;" vertex="1" parent="1">
          <mxGeometry x="345" y="281" width="102" height="41" as="geometry" />
        </mxCell>
        <mxCell id="HmAks61mSc7AbNntd1kT-14" value="계획수정" style="ellipse;whiteSpace=wrap;html=1;align=center;" vertex="1" parent="1">
          <mxGeometry x="460" y="386" width="50" height="50" as="geometry" />
        </mxCell>
        <mxCell id="HmAks61mSc7AbNntd1kT-15" value="계획등록" style="ellipse;whiteSpace=wrap;html=1;align=center;" vertex="1" parent="1">
          <mxGeometry x="280" y="386" width="50" height="50" as="geometry" />
        </mxCell>
        <mxCell id="HmAks61mSc7AbNntd1kT-16" value="계획삭제" style="ellipse;whiteSpace=wrap;html=1;align=center;" vertex="1" parent="1">
          <mxGeometry x="400" y="386" width="50" height="50" as="geometry" />
        </mxCell>
        <mxCell id="HmAks61mSc7AbNntd1kT-22" value="좋아요" style="ellipse;whiteSpace=wrap;html=1;align=center;" vertex="1" parent="1">
          <mxGeometry x="561" y="626" width="60" height="60" as="geometry" />
        </mxCell>
        <mxCell id="HmAks61mSc7AbNntd1kT-46" value="" style="edgeStyle=orthogonalEdgeStyle;rounded=0;orthogonalLoop=1;jettySize=auto;html=1;dashed=1;endArrow=classic;endFill=0;" edge="1" parent="1" source="HmAks61mSc7AbNntd1kT-23" target="HmAks61mSc7AbNntd1kT-22">
          <mxGeometry relative="1" as="geometry" />
        </mxCell>
        <mxCell id="HmAks61mSc7AbNntd1kT-23" value="여행계획 검색/조회" style="ellipse;whiteSpace=wrap;html=1;align=center;" vertex="1" parent="1">
          <mxGeometry x="580" y="505.5" width="116" height="60" as="geometry" />
        </mxCell>
        <mxCell id="HmAks61mSc7AbNntd1kT-68" style="edgeStyle=orthogonalEdgeStyle;rounded=0;orthogonalLoop=1;jettySize=auto;html=1;entryX=0.5;entryY=1;entryDx=0;entryDy=0;dashed=1;endArrow=open;endFill=0;" edge="1" parent="1" source="HmAks61mSc7AbNntd1kT-24" target="HmAks61mSc7AbNntd1kT-66">
          <mxGeometry relative="1" as="geometry" />
        </mxCell>
        <mxCell id="HmAks61mSc7AbNntd1kT-70" style="edgeStyle=orthogonalEdgeStyle;rounded=0;orthogonalLoop=1;jettySize=auto;html=1;entryX=0.5;entryY=1;entryDx=0;entryDy=0;dashed=1;endArrow=open;endFill=0;" edge="1" parent="1" source="HmAks61mSc7AbNntd1kT-24" target="HmAks61mSc7AbNntd1kT-22">
          <mxGeometry relative="1" as="geometry" />
        </mxCell>
        <mxCell id="HmAks61mSc7AbNntd1kT-24" value="로그인/인증" style="ellipse;whiteSpace=wrap;html=1;align=center;" vertex="1" parent="1">
          <mxGeometry x="588" y="750" width="100" height="46" as="geometry" />
        </mxCell>
        <mxCell id="HmAks61mSc7AbNntd1kT-26" value="" style="endArrow=classicThin;html=1;rounded=0;exitX=1;exitY=0.3333333333333333;exitDx=0;exitDy=0;exitPerimeter=0;entryX=0;entryY=0.5;entryDx=0;entryDy=0;endFill=1;" edge="1" parent="1" source="HmAks61mSc7AbNntd1kT-2" target="HmAks61mSc7AbNntd1kT-12">
          <mxGeometry relative="1" as="geometry">
            <mxPoint x="262" y="440" as="sourcePoint" />
            <mxPoint x="422" y="440" as="targetPoint" />
          </mxGeometry>
        </mxCell>
        <mxCell id="HmAks61mSc7AbNntd1kT-27" value="" style="resizable=0;html=1;whiteSpace=wrap;align=right;verticalAlign=bottom;" connectable="0" vertex="1" parent="HmAks61mSc7AbNntd1kT-26">
          <mxGeometry x="1" relative="1" as="geometry" />
        </mxCell>
        <mxCell id="HmAks61mSc7AbNntd1kT-28" value="" style="endArrow=classicThin;html=1;rounded=0;exitX=1;exitY=0.3333333333333333;exitDx=0;exitDy=0;exitPerimeter=0;entryX=0;entryY=0.5;entryDx=0;entryDy=0;endFill=1;" edge="1" parent="1" source="HmAks61mSc7AbNntd1kT-3" target="HmAks61mSc7AbNntd1kT-23">
          <mxGeometry relative="1" as="geometry">
            <mxPoint x="277" y="739" as="sourcePoint" />
            <mxPoint x="490" y="800" as="targetPoint" />
          </mxGeometry>
        </mxCell>
        <mxCell id="HmAks61mSc7AbNntd1kT-29" value="" style="resizable=0;html=1;whiteSpace=wrap;align=right;verticalAlign=bottom;" connectable="0" vertex="1" parent="HmAks61mSc7AbNntd1kT-28">
          <mxGeometry x="1" relative="1" as="geometry" />
        </mxCell>
        <mxCell id="HmAks61mSc7AbNntd1kT-30" value="" style="endArrow=classicThin;html=1;rounded=0;exitX=1;exitY=0.3333333333333333;exitDx=0;exitDy=0;exitPerimeter=0;entryX=0;entryY=0.5;entryDx=0;entryDy=0;endFill=1;" edge="1" parent="1" source="HmAks61mSc7AbNntd1kT-3" target="HmAks61mSc7AbNntd1kT-7">
          <mxGeometry relative="1" as="geometry">
            <mxPoint x="92" y="852" as="sourcePoint" />
            <mxPoint x="496" y="686" as="targetPoint" />
          </mxGeometry>
        </mxCell>
        <mxCell id="HmAks61mSc7AbNntd1kT-31" value="" style="resizable=0;html=1;whiteSpace=wrap;align=right;verticalAlign=bottom;" connectable="0" vertex="1" parent="HmAks61mSc7AbNntd1kT-30">
          <mxGeometry x="1" relative="1" as="geometry" />
        </mxCell>
        <mxCell id="HmAks61mSc7AbNntd1kT-36" value="사용자" style="shape=umlActor;verticalLabelPosition=bottom;verticalAlign=top;html=1;" vertex="1" parent="1">
          <mxGeometry x="785" y="626" width="37" height="70" as="geometry" />
        </mxCell>
        <mxCell id="HmAks61mSc7AbNntd1kT-37" value="" style="endArrow=classicThin;html=1;rounded=0;endFill=1;entryX=1;entryY=0.5;entryDx=0;entryDy=0;edgeStyle=orthogonalEdgeStyle;exitX=0.5;exitY=0;exitDx=0;exitDy=0;exitPerimeter=0;" edge="1" parent="1" source="HmAks61mSc7AbNntd1kT-36" target="HmAks61mSc7AbNntd1kT-23">
          <mxGeometry relative="1" as="geometry">
            <mxPoint x="804" y="580" as="sourcePoint" />
            <mxPoint x="1040" y="593" as="targetPoint" />
            <Array as="points">
              <mxPoint x="804" y="536" />
            </Array>
          </mxGeometry>
        </mxCell>
        <mxCell id="HmAks61mSc7AbNntd1kT-38" value="" style="resizable=0;html=1;whiteSpace=wrap;align=right;verticalAlign=bottom;" connectable="0" vertex="1" parent="HmAks61mSc7AbNntd1kT-37">
          <mxGeometry x="1" relative="1" as="geometry" />
        </mxCell>
        <mxCell id="HmAks61mSc7AbNntd1kT-51" style="rounded=0;orthogonalLoop=1;jettySize=auto;html=1;entryX=1;entryY=0.5;entryDx=0;entryDy=0;exitX=0;exitY=0.3333333333333333;exitDx=0;exitDy=0;exitPerimeter=0;" edge="1" parent="1" source="HmAks61mSc7AbNntd1kT-43" target="HmAks61mSc7AbNntd1kT-44">
          <mxGeometry relative="1" as="geometry" />
        </mxCell>
        <mxCell id="HmAks61mSc7AbNntd1kT-43" value="관리자" style="shape=umlActor;verticalLabelPosition=bottom;verticalAlign=top;html=1;" vertex="1" parent="1">
          <mxGeometry x="1481" y="459" width="45" height="81" as="geometry" />
        </mxCell>
        <mxCell id="HmAks61mSc7AbNntd1kT-71" value="" style="edgeStyle=orthogonalEdgeStyle;rounded=0;orthogonalLoop=1;jettySize=auto;html=1;endArrow=none;endFill=0;exitX=0.5;exitY=1;exitDx=0;exitDy=0;" edge="1" parent="1" source="HmAks61mSc7AbNntd1kT-44" target="HmAks61mSc7AbNntd1kT-65">
          <mxGeometry relative="1" as="geometry" />
        </mxCell>
        <mxCell id="HmAks61mSc7AbNntd1kT-44" value="회원관리" style="ellipse;whiteSpace=wrap;html=1;align=center;" vertex="1" parent="1">
          <mxGeometry x="1151" y="259" width="110" height="60" as="geometry" />
        </mxCell>
        <mxCell id="HmAks61mSc7AbNntd1kT-49" value="회원삭제" style="ellipse;whiteSpace=wrap;html=1;align=center;" vertex="1" parent="1">
          <mxGeometry x="1236" y="347" width="60" height="60" as="geometry" />
        </mxCell>
        <mxCell id="HmAks61mSc7AbNntd1kT-41" value="&amp;lt;&amp;lt;Include&amp;gt;&amp;gt;" style="text;html=1;align=center;verticalAlign=middle;resizable=0;points=[];autosize=1;strokeColor=none;fillColor=none;" vertex="1" parent="1">
          <mxGeometry x="595.5" y="695" width="85" height="26" as="geometry" />
        </mxCell>
        <mxCell id="HmAks61mSc7AbNntd1kT-54" value="&amp;lt;&amp;lt;extends&amp;gt;&amp;gt;" style="text;html=1;align=center;verticalAlign=middle;resizable=0;points=[];autosize=1;strokeColor=none;fillColor=none;" vertex="1" parent="1">
          <mxGeometry x="594" y="592" width="88" height="26" as="geometry" />
        </mxCell>
        <mxCell id="HmAks61mSc7AbNntd1kT-56" value="" style="edgeStyle=orthogonalEdgeStyle;rounded=0;orthogonalLoop=1;jettySize=auto;html=1;endArrow=block;endFill=0;" edge="1" parent="1" source="HmAks61mSc7AbNntd1kT-55" target="HmAks61mSc7AbNntd1kT-23">
          <mxGeometry relative="1" as="geometry">
            <Array as="points">
              <mxPoint x="638" y="400" />
            </Array>
          </mxGeometry>
        </mxCell>
        <mxCell id="HmAks61mSc7AbNntd1kT-55" value="키워드 검색" style="ellipse;whiteSpace=wrap;html=1;align=center;" vertex="1" parent="1">
          <mxGeometry x="665" y="374" width="120" height="50" as="geometry" />
        </mxCell>
        <mxCell id="HmAks61mSc7AbNntd1kT-60" style="edgeStyle=orthogonalEdgeStyle;rounded=0;orthogonalLoop=1;jettySize=auto;html=1;startArrow=none;startFill=0;endArrow=none;endFill=0;exitX=0;exitY=0.5;exitDx=0;exitDy=0;" edge="1" parent="1" source="HmAks61mSc7AbNntd1kT-57">
          <mxGeometry relative="1" as="geometry">
            <mxPoint x="638" y="497" as="targetPoint" />
            <Array as="points">
              <mxPoint x="638" y="341" />
            </Array>
          </mxGeometry>
        </mxCell>
        <mxCell id="HmAks61mSc7AbNntd1kT-57" value="작성자 검색" style="ellipse;whiteSpace=wrap;html=1;align=center;" vertex="1" parent="1">
          <mxGeometry x="665" y="316" width="120" height="50" as="geometry" />
        </mxCell>
        <mxCell id="HmAks61mSc7AbNntd1kT-62" style="edgeStyle=orthogonalEdgeStyle;rounded=0;orthogonalLoop=1;jettySize=auto;html=1;endArrow=none;endFill=0;exitX=0;exitY=0.5;exitDx=0;exitDy=0;" edge="1" parent="1" source="HmAks61mSc7AbNntd1kT-58">
          <mxGeometry relative="1" as="geometry">
            <mxPoint x="638" y="505.5" as="targetPoint" />
            <mxPoint x="665" y="470" as="sourcePoint" />
            <Array as="points">
              <mxPoint x="638" y="455" />
            </Array>
          </mxGeometry>
        </mxCell>
        <mxCell id="HmAks61mSc7AbNntd1kT-58" value="좋아요 순으로 출력" style="ellipse;whiteSpace=wrap;html=1;align=center;" vertex="1" parent="1">
          <mxGeometry x="665" y="430" width="120" height="50" as="geometry" />
        </mxCell>
        <mxCell id="HmAks61mSc7AbNntd1kT-63" value="가입승인" style="ellipse;whiteSpace=wrap;html=1;align=center;" vertex="1" parent="1">
          <mxGeometry x="1116" y="347" width="60" height="60" as="geometry" />
        </mxCell>
        <mxCell id="HmAks61mSc7AbNntd1kT-65" value="회원수정" style="ellipse;whiteSpace=wrap;html=1;align=center;" vertex="1" parent="1">
          <mxGeometry x="1176" y="347" width="60" height="60" as="geometry" />
        </mxCell>
        <mxCell id="HmAks61mSc7AbNntd1kT-66" value="댓글" style="ellipse;whiteSpace=wrap;html=1;align=center;" vertex="1" parent="1">
          <mxGeometry x="659" y="626" width="60" height="60" as="geometry" />
        </mxCell>
        <mxCell id="HmAks61mSc7AbNntd1kT-67" value="" style="edgeStyle=orthogonalEdgeStyle;rounded=0;orthogonalLoop=1;jettySize=auto;html=1;dashed=1;endArrow=classic;endFill=0;entryX=0.5;entryY=0;entryDx=0;entryDy=0;exitX=0.5;exitY=1;exitDx=0;exitDy=0;" edge="1" parent="1" source="HmAks61mSc7AbNntd1kT-23" target="HmAks61mSc7AbNntd1kT-66">
          <mxGeometry relative="1" as="geometry">
            <mxPoint x="728" y="568" as="sourcePoint" />
            <mxPoint x="700" y="629" as="targetPoint" />
          </mxGeometry>
        </mxCell>
        <mxCell id="HmAks61mSc7AbNntd1kT-74" value="" style="edgeStyle=orthogonalEdgeStyle;rounded=0;orthogonalLoop=1;jettySize=auto;html=1;entryX=0.5;entryY=0;entryDx=0;entryDy=0;exitX=0.5;exitY=1;exitDx=0;exitDy=0;endArrow=none;endFill=0;" edge="1" parent="1" source="HmAks61mSc7AbNntd1kT-44" target="HmAks61mSc7AbNntd1kT-63">
          <mxGeometry relative="1" as="geometry">
            <mxPoint x="1151" y="309.5" as="sourcePoint" />
            <mxPoint x="1151" y="327.5" as="targetPoint" />
            <Array as="points">
              <mxPoint x="1206" y="334" />
              <mxPoint x="1143" y="334" />
            </Array>
          </mxGeometry>
        </mxCell>
        <mxCell id="HmAks61mSc7AbNntd1kT-75" value="" style="edgeStyle=orthogonalEdgeStyle;rounded=0;orthogonalLoop=1;jettySize=auto;html=1;entryX=0.5;entryY=0;entryDx=0;entryDy=0;exitX=0.5;exitY=1;exitDx=0;exitDy=0;endArrow=none;endFill=0;" edge="1" parent="1" source="HmAks61mSc7AbNntd1kT-44" target="HmAks61mSc7AbNntd1kT-49">
          <mxGeometry relative="1" as="geometry">
            <mxPoint x="1281" y="316" as="sourcePoint" />
            <mxPoint x="1221" y="334" as="targetPoint" />
            <Array as="points">
              <mxPoint x="1206" y="334" />
              <mxPoint x="1263" y="334" />
            </Array>
          </mxGeometry>
        </mxCell>
        <mxCell id="HmAks61mSc7AbNntd1kT-78" style="rounded=0;orthogonalLoop=1;jettySize=auto;html=1;entryX=1;entryY=0.5;entryDx=0;entryDy=0;exitX=0;exitY=0.3333333333333333;exitDx=0;exitDy=0;exitPerimeter=0;" edge="1" parent="1" source="HmAks61mSc7AbNntd1kT-43" target="HmAks61mSc7AbNntd1kT-81">
          <mxGeometry relative="1" as="geometry">
            <mxPoint x="1459.5" y="620.5" as="sourcePoint" />
            <mxPoint x="1254.000000000001" y="484.5" as="targetPoint" />
          </mxGeometry>
        </mxCell>
        <mxCell id="HmAks61mSc7AbNntd1kT-79" style="rounded=0;orthogonalLoop=1;jettySize=auto;html=1;entryX=1;entryY=0.5;entryDx=0;entryDy=0;exitX=0;exitY=0.3333333333333333;exitDx=0;exitDy=0;exitPerimeter=0;" edge="1" parent="1" source="HmAks61mSc7AbNntd1kT-43" target="HmAks61mSc7AbNntd1kT-82">
          <mxGeometry relative="1" as="geometry">
            <mxPoint x="1459" y="526" as="sourcePoint" />
            <mxPoint x="1254.000000000004" y="615.5000000000002" as="targetPoint" />
          </mxGeometry>
        </mxCell>
        <mxCell id="HmAks61mSc7AbNntd1kT-80" value="댓글 삭제" style="ellipse;whiteSpace=wrap;html=1;align=center;" vertex="1" parent="1">
          <mxGeometry x="1176" y="738" width="60" height="60" as="geometry" />
        </mxCell>
        <mxCell id="HmAks61mSc7AbNntd1kT-88" value="" style="edgeStyle=orthogonalEdgeStyle;rounded=0;orthogonalLoop=1;jettySize=auto;html=1;entryX=0.5;entryY=0;entryDx=0;entryDy=0;exitX=0.5;exitY=1;exitDx=0;exitDy=0;endArrow=none;endFill=0;" edge="1" parent="1" source="HmAks61mSc7AbNntd1kT-81" target="HmAks61mSc7AbNntd1kT-86">
          <mxGeometry relative="1" as="geometry">
            <mxPoint x="1196" y="527" as="sourcePoint" />
            <mxPoint x="1196" y="553" as="targetPoint" />
            <Array as="points">
              <mxPoint x="1206" y="531" />
              <mxPoint x="1206" y="531" />
            </Array>
          </mxGeometry>
        </mxCell>
        <mxCell id="HmAks61mSc7AbNntd1kT-89" style="edgeStyle=orthogonalEdgeStyle;rounded=0;orthogonalLoop=1;jettySize=auto;html=1;entryX=0.5;entryY=0;entryDx=0;entryDy=0;endArrow=none;endFill=0;" edge="1" parent="1" source="HmAks61mSc7AbNntd1kT-81" target="HmAks61mSc7AbNntd1kT-85">
          <mxGeometry relative="1" as="geometry" />
        </mxCell>
        <mxCell id="HmAks61mSc7AbNntd1kT-90" style="edgeStyle=orthogonalEdgeStyle;rounded=0;orthogonalLoop=1;jettySize=auto;html=1;entryX=0.5;entryY=0;entryDx=0;entryDy=0;endArrow=none;endFill=0;" edge="1" parent="1" source="HmAks61mSc7AbNntd1kT-81" target="HmAks61mSc7AbNntd1kT-87">
          <mxGeometry relative="1" as="geometry" />
        </mxCell>
        <mxCell id="HmAks61mSc7AbNntd1kT-81" value="카테고리 관리" style="ellipse;whiteSpace=wrap;html=1;align=center;" vertex="1" parent="1">
          <mxGeometry x="1151" y="456" width="110" height="60" as="geometry" />
        </mxCell>
        <mxCell id="HmAks61mSc7AbNntd1kT-84" value="" style="edgeStyle=orthogonalEdgeStyle;rounded=0;orthogonalLoop=1;jettySize=auto;html=1;endArrow=none;endFill=0;" edge="1" parent="1" source="HmAks61mSc7AbNntd1kT-82" target="HmAks61mSc7AbNntd1kT-80">
          <mxGeometry relative="1" as="geometry" />
        </mxCell>
        <mxCell id="HmAks61mSc7AbNntd1kT-82" value="댓글 관리" style="ellipse;whiteSpace=wrap;html=1;align=center;" vertex="1" parent="1">
          <mxGeometry x="1151" y="650" width="110" height="60" as="geometry" />
        </mxCell>
        <mxCell id="HmAks61mSc7AbNntd1kT-85" value="카테고리&lt;div&gt;수정&lt;/div&gt;" style="ellipse;whiteSpace=wrap;html=1;align=center;" vertex="1" parent="1">
          <mxGeometry x="1116" y="547" width="60" height="60" as="geometry" />
        </mxCell>
        <mxCell id="HmAks61mSc7AbNntd1kT-86" value="카테고리&lt;div&gt;삭제&lt;/div&gt;" style="ellipse;whiteSpace=wrap;html=1;align=center;" vertex="1" parent="1">
          <mxGeometry x="1176" y="547" width="60" height="60" as="geometry" />
        </mxCell>
        <mxCell id="HmAks61mSc7AbNntd1kT-87" value="카테고리&lt;div&gt;추가&lt;/div&gt;" style="ellipse;whiteSpace=wrap;html=1;align=center;" vertex="1" parent="1">
          <mxGeometry x="1236" y="547" width="60" height="60" as="geometry" />
        </mxCell>
      </root>
    </mxGraphModel>
  </diagram>
</mxfile>
